<svg xmlns="http://www.w3.org/2000/svg" viewBox="0 0 100 100" width="100" height="100">
  <defs>
    <linearGradient id="purpleBlueGradient" x1="0%" y1="0%" x2="100%" y2="100%">
      <stop offset="0%" style="stop-color:#8B5CF6;stop-opacity:1" />
      <stop offset="100%" style="stop-color:#3B82F6;stop-opacity:1" />
    </linearGradient>
  </defs>
  
  <!-- Circular background with gradient (smaller radius for more padding) -->
  <circle cx="50" cy="50" r="40" fill="url(#purpleBlueGradient)"/>
  
  <!-- P letter with modern rounded style (white) -->
  <path d="M 25 30 L 25 70 L 32 70 L 32 53 L 46 53 C 54 53 59 47.5 59 41 C 59 34.5 54 30 46 30 Z M 32 36 L 46 36 C 50 36 53 38.5 53 41 C 53 43.5 50 47 46 47 L 32 47 Z" 
        fill="white"/>
  
  <!-- Three horizontal lines not overlapping with P (white) -->
  <rect x="62" y="36" width="13" height="3" rx="1.5" fill="white"/>
  <rect x="62" y="48" width="13" height="3" rx="1.5" fill="white"/>
  <rect x="62" y="60" width="13" height="3" rx="1.5" fill="white"/>
</svg>
